<?xml version="1.0" encoding="UTF-8" standalone="no"?>
<!-- Created with Inkscape (http://www.inkscape.org/) -->

<svg
   xmlns:dc="http://purl.org/dc/elements/1.1/"
   xmlns:cc="http://creativecommons.org/ns#"
   xmlns:rdf="http://www.w3.org/1999/02/22-rdf-syntax-ns#"
   xmlns:svg="http://www.w3.org/2000/svg"
   xmlns="http://www.w3.org/2000/svg"
   xmlns:sodipodi="http://sodipodi.sourceforge.net/DTD/sodipodi-0.dtd"
   xmlns:inkscape="http://www.inkscape.org/namespaces/inkscape"
   id="logo"
   version="1.1"
   inkscape:version="0.91 r13725"
   xml:space="preserve"
   width="1280"
   height="720"
   viewBox="0 0 1280 720"
   sodipodi:docname="splash.svg"><metadata
     id="metadata8"><rdf:RDF><cc:Work
         rdf:about=""><dc:format>image/svg+xml</dc:format><dc:type
           rdf:resource="http://purl.org/dc/dcmitype/StillImage" /><dc:title></dc:title></cc:Work></rdf:RDF></metadata><defs
     id="defs6"><clipPath
       clipPathUnits="userSpaceOnUse"
       id="clipPath18"><path
         d="M 14000,0 0,0 l 0,9000 14000,0 0,-9000 M 7005.68,3170.39 c -1300.57,0 -2354.88,-161.16 -2354.88,-359.98 0,-198.81 1054.31,-359.98 2354.88,-359.98 1300.57,0 2354.89,161.17 2354.89,359.98 0,198.82 -1054.32,359.98 -2354.89,359.98"
         id="path20"
         inkscape:connector-curvature="0" /></clipPath><radialGradient
       fx="0"
       fy="0"
       cx="0"
       cy="0"
       r="1"
       gradientUnits="userSpaceOnUse"
       gradientTransform="matrix(6910.67,0,0,-2771.89,7060,-584.75)"
       spreadMethod="pad"
       id="radialGradient22"><stop
         style="stop-opacity:1;stop-color:#8f9295"
         offset="0"
         id="stop24" /><stop
         style="stop-opacity:1;stop-color:#ffffff"
         offset="1"
         id="stop26" /></radialGradient><clipPath
       clipPathUnits="userSpaceOnUse"
       id="clipPath34"><path
         d="m 7005.68,2450.43 c -1300.57,0 -2354.88,161.17 -2354.88,359.98 0,198.82 1054.31,359.98 2354.88,359.98 1300.57,0 2354.89,-161.16 2354.89,-359.98 0,-198.81 -1054.32,-359.98 -2354.89,-359.98"
         id="path36"
         inkscape:connector-curvature="0" /></clipPath><clipPath
       clipPathUnits="userSpaceOnUse"
       id="clipPath62"><path
         d="m 7560.54,6546.84 278.031,0 0,278.039 -278.031,0 0,-278.039 z"
         id="path64"
         inkscape:connector-curvature="0" /></clipPath><linearGradient
       x1="0"
       y1="0"
       x2="1"
       y2="0"
       gradientUnits="userSpaceOnUse"
       gradientTransform="matrix(278.037,0,0,-278.037,7560.54,6685.86)"
       spreadMethod="pad"
       id="linearGradient66"><stop
         style="stop-opacity:1;stop-color:#cde313"
         offset="0"
         id="stop68" /><stop
         style="stop-opacity:1;stop-color:#80cc2a"
         offset="1"
         id="stop70" /></linearGradient><clipPath
       clipPathUnits="userSpaceOnUse"
       id="clipPath78"><path
         d="m 7421.5,6824.88 139.039,0 0,139.031 -139.039,0 0,-139.031 z"
         id="path80"
         inkscape:connector-curvature="0" /></clipPath><linearGradient
       x1="0"
       y1="0"
       x2="1"
       y2="0"
       gradientUnits="userSpaceOnUse"
       gradientTransform="matrix(139.033,0,0,-139.033,7421.5,6894.39)"
       spreadMethod="pad"
       id="linearGradient82"><stop
         style="stop-opacity:1;stop-color:#cde313"
         offset="0"
         id="stop84" /><stop
         style="stop-opacity:1;stop-color:#80cc2a"
         offset="1"
         id="stop86" /></linearGradient><clipPath
       clipPathUnits="userSpaceOnUse"
       id="clipPath94"><path
         d="m 7266.99,6668.49 69.5,0 0,69.5078 -69.5,0 0,-69.5078 z"
         id="path96"
         inkscape:connector-curvature="0" /></clipPath><linearGradient
       x1="0"
       y1="0"
       x2="1"
       y2="0"
       gradientUnits="userSpaceOnUse"
       gradientTransform="matrix(69.502,0,0,-69.502,7266.99,6703.24)"
       spreadMethod="pad"
       id="linearGradient98"><stop
         style="stop-opacity:1;stop-color:#cde313"
         offset="0"
         id="stop100" /><stop
         style="stop-opacity:1;stop-color:#80cc2a"
         offset="1"
         id="stop102" /></linearGradient><clipPath
       clipPathUnits="userSpaceOnUse"
       id="clipPath110"><path
         d="m 7699.55,7094.24 139.02,0 0,139.008 -139.02,0 0,-139.008 z"
         id="path112"
         inkscape:connector-curvature="0" /></clipPath><linearGradient
       x1="0"
       y1="0"
       x2="1"
       y2="0"
       gradientUnits="userSpaceOnUse"
       gradientTransform="matrix(139.023,0,0,-139.023,7699.55,7163.75)"
       spreadMethod="pad"
       id="linearGradient114"><stop
         style="stop-opacity:1;stop-color:#cde313"
         offset="0"
         id="stop116" /><stop
         style="stop-opacity:1;stop-color:#80cc2a"
         offset="1"
         id="stop118" /></linearGradient><clipPath
       clipPathUnits="userSpaceOnUse"
       id="clipPath126"><path
         d="m 8083.74,6598.97 295.406,0 0,295.422 -295.406,0 0,-295.422 z"
         id="path128"
         inkscape:connector-curvature="0" /></clipPath><linearGradient
       x1="0"
       y1="0"
       x2="1"
       y2="0"
       gradientUnits="userSpaceOnUse"
       gradientTransform="matrix(295.41,0,0,-295.41,8083.74,6746.68)"
       spreadMethod="pad"
       id="linearGradient130"><stop
         style="stop-opacity:1;stop-color:#cde313"
         offset="0"
         id="stop132" /><stop
         style="stop-opacity:1;stop-color:#80cc2a"
         offset="1"
         id="stop134" /></linearGradient><clipPath
       clipPathUnits="userSpaceOnUse"
       id="clipPath142"><path
         d="m 7779.63,6807.5 208.52,0 0,208.539 -208.52,0 0,-208.539 z"
         id="path144"
         inkscape:connector-curvature="0" /></clipPath><linearGradient
       x1="0"
       y1="0"
       x2="1"
       y2="0"
       gradientUnits="userSpaceOnUse"
       gradientTransform="matrix(208.525,0,0,-208.525,7779.63,6911.77)"
       spreadMethod="pad"
       id="linearGradient146"><stop
         style="stop-opacity:1;stop-color:#cde313"
         offset="0"
         id="stop148" /><stop
         style="stop-opacity:1;stop-color:#80cc2a"
         offset="1"
         id="stop150" /></linearGradient><clipPath
       clipPathUnits="userSpaceOnUse"
       id="clipPath158"><path
         d="m 7197.48,7163.75 69.5078,0 0,69.5 -69.5078,0 0,-69.5 z"
         id="path160"
         inkscape:connector-curvature="0" /></clipPath><linearGradient
       x1="0"
       y1="0"
       x2="1"
       y2="0"
       gradientUnits="userSpaceOnUse"
       gradientTransform="matrix(69.5117,0,0,-69.5117,7197.48,7198.5)"
       spreadMethod="pad"
       id="linearGradient162"><stop
         style="stop-opacity:1;stop-color:#cde313"
         offset="0"
         id="stop164" /><stop
         style="stop-opacity:1;stop-color:#80cc2a"
         offset="1"
         id="stop166" /></linearGradient><clipPath
       clipPathUnits="userSpaceOnUse"
       id="clipPath174"><path
         d="m 7953.41,7528.67 69.5,0 0,69.5078 -69.5,0 0,-69.5078 z"
         id="path176"
         inkscape:connector-curvature="0" /></clipPath><linearGradient
       x1="0"
       y1="0"
       x2="1"
       y2="0"
       gradientUnits="userSpaceOnUse"
       gradientTransform="matrix(69.502,0,0,-69.502,7953.41,7563.43)"
       spreadMethod="pad"
       id="linearGradient178"><stop
         style="stop-opacity:1;stop-color:#cde313"
         offset="0"
         id="stop180" /><stop
         style="stop-opacity:1;stop-color:#80cc2a"
         offset="1"
         id="stop182" /></linearGradient><clipPath
       clipPathUnits="userSpaceOnUse"
       id="clipPath190"><path
         d="m 7386.76,7745.89 69.5078,0 0,69.5078 -69.5078,0 0,-69.5078 z"
         id="path192"
         inkscape:connector-curvature="0" /></clipPath><linearGradient
       x1="0"
       y1="0"
       x2="1"
       y2="0"
       gradientUnits="userSpaceOnUse"
       gradientTransform="matrix(69.5117,0,0,-69.5117,7386.76,7780.64)"
       spreadMethod="pad"
       id="linearGradient194"><stop
         style="stop-opacity:1;stop-color:#cde313"
         offset="0"
         id="stop196" /><stop
         style="stop-opacity:1;stop-color:#80cc2a"
         offset="1"
         id="stop198" /></linearGradient><clipPath
       clipPathUnits="userSpaceOnUse"
       id="clipPath206"><path
         d="m 8544.24,8180.32 69.5078,0 0,69.5195 -69.5078,0 0,-69.5195 z"
         id="path208"
         inkscape:connector-curvature="0" /></clipPath><linearGradient
       x1="0"
       y1="0"
       x2="1"
       y2="0"
       gradientUnits="userSpaceOnUse"
       gradientTransform="matrix(69.5117,0,0,-69.5117,8544.24,8215.08)"
       spreadMethod="pad"
       id="linearGradient210"><stop
         style="stop-opacity:1;stop-color:#cde313"
         offset="0"
         id="stop212" /><stop
         style="stop-opacity:1;stop-color:#80cc2a"
         offset="1"
         id="stop214" /></linearGradient><clipPath
       clipPathUnits="userSpaceOnUse"
       id="clipPath222"><path
         d="m 8422.6,7676.38 69.5078,0 0,69.5117 -69.5078,0 0,-69.5117 z"
         id="path224"
         inkscape:connector-curvature="0" /></clipPath><linearGradient
       x1="0"
       y1="0"
       x2="1"
       y2="0"
       gradientUnits="userSpaceOnUse"
       gradientTransform="matrix(69.5117,0,0,-69.5117,8422.6,7711.13)"
       spreadMethod="pad"
       id="linearGradient226"><stop
         style="stop-opacity:1;stop-color:#cde313"
         offset="0"
         id="stop228" /><stop
         style="stop-opacity:1;stop-color:#80cc2a"
         offset="1"
         id="stop230" /></linearGradient><clipPath
       clipPathUnits="userSpaceOnUse"
       id="clipPath238"><path
         d="m 8222.75,7146.37 104.262,0 0,104.25 -104.262,0 0,-104.25 z"
         id="path240"
         inkscape:connector-curvature="0" /></clipPath><linearGradient
       x1="0"
       y1="0"
       x2="1"
       y2="0"
       gradientUnits="userSpaceOnUse"
       gradientTransform="matrix(104.258,0,0,-104.258,8222.75,7198.5)"
       spreadMethod="pad"
       id="linearGradient242"><stop
         style="stop-opacity:1;stop-color:#cde313"
         offset="0"
         id="stop244" /><stop
         style="stop-opacity:1;stop-color:#80cc2a"
         offset="1"
         id="stop246" /></linearGradient><clipPath
       clipPathUnits="userSpaceOnUse"
       id="clipPath254"><path
         d="m 8305.7,6437.5 85.8398,0 0,85.8203 -85.8398,0 0,-85.8203 z"
         id="path256"
         inkscape:connector-curvature="0" /></clipPath><linearGradient
       x1="0"
       y1="0"
       x2="1"
       y2="0"
       gradientUnits="userSpaceOnUse"
       gradientTransform="matrix(85.8398,0,0,-85.8398,8305.7,6480.41)"
       spreadMethod="pad"
       id="linearGradient258"><stop
         style="stop-opacity:1;stop-color:#cde313"
         offset="0"
         id="stop260" /><stop
         style="stop-opacity:1;stop-color:#80cc2a"
         offset="1"
         id="stop262" /></linearGradient><clipPath
       clipPathUnits="userSpaceOnUse"
       id="clipPath270"><path
         d="m 7726.14,6346.45 85.8281,0 0,85.8203 -85.8281,0 0,-85.8203 z"
         id="path272"
         inkscape:connector-curvature="0" /></clipPath><linearGradient
       x1="0"
       y1="0"
       x2="1"
       y2="0"
       gradientUnits="userSpaceOnUse"
       gradientTransform="matrix(85.8301,0,0,-85.8301,7726.14,6389.36)"
       spreadMethod="pad"
       id="linearGradient274"><stop
         style="stop-opacity:1;stop-color:#cde313"
         offset="0"
         id="stop276" /><stop
         style="stop-opacity:1;stop-color:#80cc2a"
         offset="1"
         id="stop278" /></linearGradient><clipPath
       clipPathUnits="userSpaceOnUse"
       id="clipPath286"><path
         d="m 8444.01,6576.96 42.918,0 0,42.9102 -42.918,0 0,-42.9102 z"
         id="path288"
         inkscape:connector-curvature="0" /></clipPath><linearGradient
       x1="0"
       y1="0"
       x2="1"
       y2="0"
       gradientUnits="userSpaceOnUse"
       gradientTransform="matrix(42.9199,0,0,-42.9199,8444.01,6598.42)"
       spreadMethod="pad"
       id="linearGradient290"><stop
         style="stop-opacity:1;stop-color:#cde313"
         offset="0"
         id="stop292" /><stop
         style="stop-opacity:1;stop-color:#80cc2a"
         offset="1"
         id="stop294" /></linearGradient><clipPath
       clipPathUnits="userSpaceOnUse"
       id="clipPath302"><path
         d="m 7862.43,6064.97 42.9102,0 0,42.9102 -42.9102,0 0,-42.9102 z"
         id="path304"
         inkscape:connector-curvature="0" /></clipPath><linearGradient
       x1="0"
       y1="0"
       x2="1"
       y2="0"
       gradientUnits="userSpaceOnUse"
       gradientTransform="matrix(42.9102,0,0,-42.9102,7862.43,6086.43)"
       spreadMethod="pad"
       id="linearGradient306"><stop
         style="stop-opacity:1;stop-color:#cde313"
         offset="0"
         id="stop308" /><stop
         style="stop-opacity:1;stop-color:#80cc2a"
         offset="1"
         id="stop310" /></linearGradient><clipPath
       clipPathUnits="userSpaceOnUse"
       id="clipPath318"><path
         d="m 7927.69,6249.89 182.379,0 0,182.379 -182.379,0 0,-182.379 z"
         id="path320"
         inkscape:connector-curvature="0" /></clipPath><linearGradient
       x1="0"
       y1="0"
       x2="1"
       y2="0"
       gradientUnits="userSpaceOnUse"
       gradientTransform="matrix(182.383,0,0,-182.383,7927.69,6341.08)"
       spreadMethod="pad"
       id="linearGradient322"><stop
         style="stop-opacity:1;stop-color:#cde313"
         offset="0"
         id="stop324" /><stop
         style="stop-opacity:1;stop-color:#80cc2a"
         offset="1"
         id="stop326" /></linearGradient></defs><sodipodi:namedview
     pagecolor="#ffffff"
     bordercolor="#666666"
     borderopacity="1"
     objecttolerance="10"
     gridtolerance="10"
     guidetolerance="10"
     inkscape:pageopacity="0"
     inkscape:pageshadow="2"
     inkscape:window-width="737"
     inkscape:window-height="373"
     id="namedview4"
     showgrid="false"
     inkscape:zoom="0.17142807"
     inkscape:cx="-204.29437"
     inkscape:cy="237.6658"
     inkscape:window-x="372"
     inkscape:window-y="190"
     inkscape:window-maximized="0"
     inkscape:current-layer="g10" /><g
     id="g10"
     inkscape:groupmode="layer"
     inkscape:label="ink_ext_XXXXXX"
     transform="matrix(1.25,0,0,-1.25,0,720)"><g
       id="g12"
       transform="matrix(0.03547174,0.00611503,-0.00695357,0.0403359,302.01029,17.640147)"><g
         id="g14"><g
           id="g16"
           clip-path="url(#clipPath18)" /></g><g
         id="g30"><g
           id="g32"
           clip-path="url(#clipPath34)"><g
             id="g38"
             transform="matrix(4729.2,0,0,735.2,4640.9,2442.9)" /></g></g><g
         id="g58"><g
           id="g60"
           clip-path="url(#clipPath62)"><path
             d="m 7560.54,6546.84 278.031,0 0,278.039 -278.031,0 0,-278.039 z"
             style="fill:url(#linearGradient66);fill-opacity:1;fill-rule:nonzero;stroke:none"
             id="path72"
             inkscape:connector-curvature="0" /></g></g><g
         id="g74"><g
           id="g76"
           clip-path="url(#clipPath78)"><path
             d="m 7421.5,6824.88 139.039,0 0,139.031 -139.039,0 0,-139.031 z"
             style="fill:url(#linearGradient82);fill-opacity:1;fill-rule:nonzero;stroke:none"
             id="path88"
             inkscape:connector-curvature="0" /></g></g><g
         id="g90"><g
           id="g92"
           clip-path="url(#clipPath94)"><path
             d="m 7266.99,6668.49 69.5,0 0,69.5078 -69.5,0 0,-69.5078 z"
             style="fill:url(#linearGradient98);fill-opacity:1;fill-rule:nonzero;stroke:none"
             id="path104"
             inkscape:connector-curvature="0" /></g></g><g
         id="g106"><g
           id="g108"
           clip-path="url(#clipPath110)"><path
             d="m 7699.55,7094.24 139.02,0 0,139.008 -139.02,0 0,-139.008 z"
             style="fill:url(#linearGradient114);fill-opacity:1;fill-rule:nonzero;stroke:none"
             id="path120"
             inkscape:connector-curvature="0" /></g></g><g
         id="g122"><g
           id="g124"
           clip-path="url(#clipPath126)"><path
             d="m 8083.74,6598.97 295.406,0 0,295.422 -295.406,0 0,-295.422 z"
             style="fill:url(#linearGradient130);fill-opacity:1;fill-rule:nonzero;stroke:none"
             id="path136"
             inkscape:connector-curvature="0" /></g></g><g
         id="g138"><g
           id="g140"
           clip-path="url(#clipPath142)"><path
             d="m 7779.63,6807.5 208.52,0 0,208.539 -208.52,0 0,-208.539 z"
             style="fill:url(#linearGradient146);fill-opacity:1;fill-rule:nonzero;stroke:none"
             id="path152"
             inkscape:connector-curvature="0" /></g></g><g
         id="g154"><g
           id="g156"
           clip-path="url(#clipPath158)"><path
             d="m 7197.48,7163.75 69.5078,0 0,69.5 -69.5078,0 0,-69.5 z"
             style="fill:url(#linearGradient162);fill-opacity:1;fill-rule:nonzero;stroke:none"
             id="path168"
             inkscape:connector-curvature="0" /></g></g><g
         id="g170"><g
           id="g172"
           clip-path="url(#clipPath174)"><path
             d="m 7953.41,7528.67 69.5,0 0,69.5078 -69.5,0 0,-69.5078 z"
             style="fill:url(#linearGradient178);fill-opacity:1;fill-rule:nonzero;stroke:none"
             id="path184"
             inkscape:connector-curvature="0" /></g></g><g
         id="g186"><g
           id="g188"
           clip-path="url(#clipPath190)"><path
             d="m 7386.76,7745.89 69.5078,0 0,69.5078 -69.5078,0 0,-69.5078 z"
             style="fill:url(#linearGradient194);fill-opacity:1;fill-rule:nonzero;stroke:none"
             id="path200"
             inkscape:connector-curvature="0" /></g></g><g
         id="g202"><g
           id="g204"
           clip-path="url(#clipPath206)"><path
             d="m 8544.24,8180.32 69.5078,0 0,69.5195 -69.5078,0 0,-69.5195 z"
             style="fill:url(#linearGradient210);fill-opacity:1;fill-rule:nonzero;stroke:none"
             id="path216"
             inkscape:connector-curvature="0" /></g></g><g
         id="g218"><g
           id="g220"
           clip-path="url(#clipPath222)"><path
             d="m 8422.6,7676.38 69.5078,0 0,69.5117 -69.5078,0 0,-69.5117 z"
             style="fill:url(#linearGradient226);fill-opacity:1;fill-rule:nonzero;stroke:none"
             id="path232"
             inkscape:connector-curvature="0" /></g></g><g
         id="g234"><g
           id="g236"
           clip-path="url(#clipPath238)"><path
             d="m 8222.75,7146.37 104.262,0 0,104.25 -104.262,0 0,-104.25 z"
             style="fill:url(#linearGradient242);fill-opacity:1;fill-rule:nonzero;stroke:none"
             id="path248"
             inkscape:connector-curvature="0" /></g></g><g
         id="g250"><g
           id="g252"
           clip-path="url(#clipPath254)"><path
             d="m 8305.7,6437.5 85.8398,0 0,85.8203 -85.8398,0 0,-85.8203 z"
             style="fill:url(#linearGradient258);fill-opacity:1;fill-rule:nonzero;stroke:none"
             id="path264"
             inkscape:connector-curvature="0" /></g></g><g
         id="g266"><g
           id="g268"
           clip-path="url(#clipPath270)"><path
             d="m 7726.14,6346.45 85.8281,0 0,85.8203 -85.8281,0 0,-85.8203 z"
             style="fill:url(#linearGradient274);fill-opacity:1;fill-rule:nonzero;stroke:none"
             id="path280"
             inkscape:connector-curvature="0" /></g></g><g
         id="g282"><g
           id="g284"
           clip-path="url(#clipPath286)"><path
             d="m 8444.01,6576.96 42.918,0 0,42.9102 -42.918,0 0,-42.9102 z"
             style="fill:url(#linearGradient290);fill-opacity:1;fill-rule:nonzero;stroke:none"
             id="path296"
             inkscape:connector-curvature="0" /></g></g><g
         id="g298"><g
           id="g300"
           clip-path="url(#clipPath302)"><path
             d="m 7862.43,6064.97 42.9102,0 0,42.9102 -42.9102,0 0,-42.9102 z"
             style="fill:url(#linearGradient306);fill-opacity:1;fill-rule:nonzero;stroke:none"
             id="path312"
             inkscape:connector-curvature="0" /></g></g><g
         id="g314"><g
           id="g316"
           clip-path="url(#clipPath318)"><path
             d="m 7927.69,6249.89 182.379,0 0,182.379 -182.379,0 0,-182.379 z"
             style="fill:url(#linearGradient322);fill-opacity:1;fill-rule:nonzero;stroke:none"
             id="path328"
             inkscape:connector-curvature="0" /></g></g><path
         d="m 8978.05,4374.09 0,-383.71 540.01,-141.47 -540.01,525.18"
         style="fill:#4a48a5;fill-opacity:1;fill-rule:nonzero;stroke:none"
         id="path330"
         inkscape:connector-curvature="0" /><path
         d="m 7711.9,4328.13 0,10.06 -7.52,-14.18 7.52,4.12"
         style="fill:#3e81cb;fill-opacity:1;fill-rule:nonzero;stroke:none"
         id="path332"
         inkscape:connector-curvature="0" /><path
         d="m 8017.46,4914.54 -137.03,-258.47 429.92,0 570.76,312.77 -440.23,375.64 -728.98,0 0,112.9 -520.39,-196.66 825.95,-346.18"
         style="fill:#3e81cb;fill-opacity:1;fill-rule:nonzero;stroke:none"
         id="path334"
         inkscape:connector-curvature="0" /><path
         d="m 4724.77,5308.2 -582.96,230.78 -214.61,-688.1 0,-3.86 614.04,165.92 183.53,295.26"
         style="fill:#45b5c7;fill-opacity:1;fill-rule:nonzero;stroke:none"
         id="path336"
         inkscape:connector-curvature="0" /><path
         d="m 4541.24,5012.94 -153.59,-659.06 417.44,42.03 0,165.39 89.88,-140.54 642.49,227.87 -996.22,364.31"
         style="fill:#3562b6;fill-opacity:1;fill-rule:nonzero;stroke:none"
         id="path338"
         inkscape:connector-curvature="0" /><path
         d="m 4968.31,5134.96 -163.22,0 0,146.2 -80.32,27.04 -183.53,-295.26 1554.54,-166.27 0.01,0.01 -917.37,308.81 c -60.7,-13.63 -130.66,-20.53 -210.11,-20.53"
         style="fill:#4494d6;fill-opacity:1;fill-rule:nonzero;stroke:none"
         id="path340"
         inkscape:connector-curvature="0" /><path
         d="m 9442.49,4520.87 -464.44,0 0,-146.78 540.01,-525.18 -75.57,671.96"
         style="fill:#6c228a;fill-opacity:1;fill-rule:nonzero;stroke:none"
         id="path342"
         inkscape:connector-curvature="0" /><path
         d="m 8978.05,4637.19 0,-116.32 877.89,0 0,98.14 -467.43,334.56 -410.46,-316.38"
         style="fill:#3c51ab;fill-opacity:1;fill-rule:nonzero;stroke:none"
         id="path344"
         inkscape:connector-curvature="0" /><path
         d="m 7313.73,4800.54 390.65,-476.53 7.52,14.18 0,317.88 168.53,0 137.03,258.47 -703.73,-114"
         style="fill:#326faf;fill-opacity:1;fill-rule:nonzero;stroke:none"
         id="path346"
         inkscape:connector-curvature="0" /><path
         d="m 5537.46,4648.63 558.27,198 0.05,0.04 -1554.54,166.27 996.22,-364.31"
         style="fill:#44add3;fill-opacity:1;fill-rule:nonzero;stroke:none"
         id="path348"
         inkscape:connector-curvature="0" /><path
         d="m 4325.34,4086.46 479.75,-185.34 0,494.79 -417.44,-42.03 -62.31,-267.42"
         style="fill:#3757af;fill-opacity:1;fill-rule:nonzero;stroke:none"
         id="path350"
         inkscape:connector-curvature="0" /><path
         d="m 5278.38,3821.24 493.15,700.23 -19.79,26.07 -849.82,-137.64 376.46,-588.66"
         style="fill:#3759b0;fill-opacity:1;fill-rule:nonzero;stroke:none"
         id="path352"
         inkscape:connector-curvature="0" /><path
         d="m 7313.73,4800.54 -479.71,-77.7 0,-398.83 870.36,0 -390.65,476.53"
         style="fill:#4849a6;fill-opacity:1;fill-rule:nonzero;stroke:none"
         id="path354"
         inkscape:connector-curvature="0" /><path
         d="m 5304.4,3780.57 752.67,364.98 -285.54,375.92 -493.15,-700.23 26.02,-40.67"
         style="fill:#3f44a2;fill-opacity:1;fill-rule:nonzero;stroke:none"
         id="path356"
         inkscape:connector-curvature="0" /><path
         d="m 7676.93,5956.7 34.97,9.24 0,256.47 -234.23,-113.28 199.26,-152.43"
         style="fill:#4ac09c;fill-opacity:1;fill-rule:nonzero;stroke:none"
         id="path358"
         inkscape:connector-curvature="0" /><path
         d="m 9855.94,6658.92 -433.08,0 -444.81,-172.62 0,-261.57 877.89,153.97 0,280.22"
         style="fill:#4dc2a5;fill-opacity:1;fill-rule:nonzero;stroke:none"
         id="path360"
         inkscape:connector-curvature="0" /><path
         d="m 6970.6,5770.1 706.33,186.6 -199.26,152.43 234.23,113.28 0,269.29 -439.34,-97.49 -301.96,-624.11"
         style="fill:#a6d940;fill-opacity:1;fill-rule:nonzero;stroke:none"
         id="path362"
         inkscape:connector-curvature="0" /><path
         d="m 7407.75,6658.92 -573.73,0 0,-74.56 438.54,-190.15 135.19,264.71"
         style="fill:#dbe81b;fill-opacity:1;fill-rule:nonzero;stroke:none"
         id="path364"
         inkscape:connector-curvature="0" /><path
         d="m 7711.9,6491.7 0,167.22 -304.15,0 -135.19,-264.71 439.34,97.49"
         style="fill:#9ed639;fill-opacity:1;fill-rule:nonzero;stroke:none"
         id="path366"
         inkscape:connector-curvature="0" /><path
         d="m 5296.94,6652.12 -202.26,6.8 -763.71,0 -403.77,-487.12 0,-1.59 1019.54,0 350.2,481.91"
         style="fill:#ebe407;fill-opacity:1;fill-rule:nonzero;stroke:none"
         id="path368"
         inkscape:connector-curvature="0" /><path
         d="m 5296.94,6652.12 -350.2,-481.91 1149.09,0 57.52,152.88 c -10.59,12.31 -21.43,24.51 -32.66,36.52 -90.74,96.14 -196.89,168.39 -318.42,216.83 l -213.84,-90.6 -291.49,166.28"
         style="fill:#dbe818;fill-opacity:1;fill-rule:nonzero;stroke:none"
         id="path370"
         inkscape:connector-curvature="0" /><path
         d="m 9855.94,5984.47 -877.89,-501.76 0,-37.87 877.89,281.55 0,258.08"
         style="fill:#42a5cd;fill-opacity:1;fill-rule:nonzero;stroke:none"
         id="path372"
         inkscape:connector-curvature="0" /><path
         d="m 9855.94,4619.01 0,419.01 -467.43,-84.45 467.43,-334.56"
         style="fill:#3e81cb;fill-opacity:1;fill-rule:nonzero;stroke:none"
         id="path374"
         inkscape:connector-curvature="0" /><path
         d="m 9855.94,6072.32 -877.89,-148.14 0,-441.47 877.89,501.76 0,87.85"
         style="fill:#5fc461;fill-opacity:1;fill-rule:nonzero;stroke:none"
         id="path376"
         inkscape:connector-curvature="0" /><path
         d="m 7711.9,4322.04 0,6.09 -7.52,-4.12 7.52,-1.97"
         style="fill:#3d7bc7;fill-opacity:1;fill-rule:nonzero;stroke:none"
         id="path378"
         inkscape:connector-curvature="0" /><path
         d="m 8310.35,4656.07 667.7,0 0,-18.88 410.46,316.38 467.43,84.45 0,95.21 -877.89,224.6 0,-13.35 -537.17,0 440.23,-375.64 -570.76,-312.77"
         style="fill:#3d7bc7;fill-opacity:1;fill-rule:nonzero;stroke:none"
         id="path380"
         inkscape:connector-curvature="0" /><path
         d="m 9855.94,6378.7 -877.89,-153.97 0,-300.55 877.89,148.14 0,306.38"
         style="fill:#a8d93a;fill-opacity:1;fill-rule:nonzero;stroke:none"
         id="path382"
         inkscape:connector-curvature="0" /><path
         d="m 6834.02,6584.36 0,-273.63 438.54,83.48 -438.54,190.15"
         style="fill:#c1e139;fill-opacity:1;fill-rule:nonzero;stroke:none"
         id="path384"
         inkscape:connector-curvature="0" /><path
         d="m 6245.79,6198.76 c -27.38,43.04 -58.21,84.48 -92.44,124.33 l -57.52,-152.88 149.96,28.55"
         style="fill:#c1e139;fill-opacity:1;fill-rule:nonzero;stroke:none"
         id="path386"
         inkscape:connector-curvature="0" /><path
         d="m 5487.64,5436.61 c -7.16,-21.93 -16.17,-43.91 -27.22,-65.95 -31.34,-62.35 -70.1,-110.99 -116.23,-145.9 -43.96,-31.3 -99.29,-54.33 -165.77,-69.27 l 917.37,-308.81 0.04,0.04 0,692.26 -608.19,-102.37"
         style="fill:#47b7cf;fill-opacity:1;fill-rule:nonzero;stroke:none"
         id="path388"
         inkscape:connector-curvature="0" /><path
         d="m 4724.77,5308.2 80.32,-27.04 0,40.56 -80.32,-13.52"
         style="fill:#47b7cf;fill-opacity:1;fill-rule:nonzero;stroke:none"
         id="path390"
         inkscape:connector-curvature="0" /><path
         d="m 4805.09,5358.71 -80.32,-50.51 80.32,13.52 0,36.99"
         style="fill:#4cc2a9;fill-opacity:1;fill-rule:nonzero;stroke:none"
         id="path392"
         inkscape:connector-curvature="0" /><path
         d="m 5460.42,5742.3 c 31.29,-62.35 46.98,-124.32 46.98,-185.82 0,-39.79 -6.66,-79.74 -19.76,-119.87 l 608.19,102.37 -150.5,142.54 -491.87,73.86 c 2.33,-4.34 4.7,-8.6 6.96,-13.08"
         style="fill:#4cc2a9;fill-opacity:1;fill-rule:nonzero;stroke:none"
         id="path394"
         inkscape:connector-curvature="0" /><path
         d="m 4894.97,4420.76 6.95,-10.86 849.82,137.64 -23.9,31.46 -190.38,69.63 -642.49,-227.87"
         style="fill:#3f5eb3;fill-opacity:1;fill-rule:nonzero;stroke:none"
         id="path396"
         inkscape:connector-curvature="0" /><path
         d="m 7711.9,5929.95 0,35.99 -34.97,-9.24 34.97,-26.75"
         style="fill:#3fadb2;fill-opacity:1;fill-rule:nonzero;stroke:none"
         id="path398"
         inkscape:connector-curvature="0" /><path
         d="m 5727.84,4579 -54.75,72.09 c 177.05,40.56 317.85,105.78 422.64,195.54 l -558.27,-198 190.38,-69.63"
         style="fill:#3f89ca;fill-opacity:1;fill-rule:nonzero;stroke:none"
         id="path400"
         inkscape:connector-curvature="0" /><path
         d="m 6834.02,5385.69 0,-260.06 162.77,61.51 -162.77,198.55"
         style="fill:#44abd3;fill-opacity:1;fill-rule:nonzero;stroke:none"
         id="path402"
         inkscape:connector-curvature="0" /><path
         d="m 3927.2,5399.58 0,-548.7 214.61,688.1 -214.61,-139.4"
         style="fill:#47b2d1;fill-opacity:1;fill-rule:nonzero;stroke:none"
         id="path404"
         inkscape:connector-curvature="0" /><path
         d="m 4541.24,5012.94 -614.04,-588.06 0,-117.36 460.45,46.36 153.59,659.06"
         style="fill:#345cb2;fill-opacity:1;fill-rule:nonzero;stroke:none"
         id="path406"
         inkscape:connector-curvature="0" /><path
         d="m 8978.05,3254.34 99.15,0 778.74,361.27 0,45.01 -877.89,-119.11 0,-287.17"
         style="fill:#73248d;fill-opacity:1;fill-rule:nonzero;stroke:none"
         id="path408"
         inkscape:connector-curvature="0" /><path
         d="m 5354.07,3702.89 469.16,-132.27 464.98,270.6 -231.14,304.33 -752.67,-364.98 49.67,-77.68"
         style="fill:#c72497;fill-opacity:1;fill-rule:nonzero;stroke:none"
         id="path410"
         inkscape:connector-curvature="0" /><path
         d="m 4141.81,5538.98 582.96,-230.78 -339.81,366.67 -243.15,-135.89"
         style="fill:#54c27d;fill-opacity:1;fill-rule:nonzero;stroke:none"
         id="path412"
         inkscape:connector-curvature="0" /><path
         d="m 4325.34,4086.46 -398.14,-179.8 0,-227.89 398.14,-66.51 0,474.2"
         style="fill:#8c2290;fill-opacity:1;fill-rule:nonzero;stroke:none"
         id="path414"
         inkscape:connector-curvature="0" /><path
         d="m 5453.46,5755.38 491.87,-73.86 150.5,488.69 -646.75,-406.61 c 1.5,-2.67 2.91,-5.49 4.38,-8.22"
         style="fill:#55c058;fill-opacity:1;fill-rule:nonzero;stroke:none"
         id="path416"
         inkscape:connector-curvature="0" /><path
         d="m 6834.02,6310.73 0,-235.24 438.54,318.72 -438.54,-83.48"
         style="fill:#54c065;fill-opacity:1;fill-rule:nonzero;stroke:none"
         id="path418"
         inkscape:connector-curvature="0" /><path
         d="m 5945.33,5681.52 150.5,-142.54 304.83,221.55 c -19.8,160.89 -71.36,306.99 -154.87,438.23 l -149.96,-28.55 -150.5,-488.69"
         style="fill:#54c065;fill-opacity:1;fill-rule:nonzero;stroke:none"
         id="path420"
         inkscape:connector-curvature="0" /><path
         d="m 4968.31,5978 c 166.49,0 291.8,-29.93 375.88,-89.79 40.73,-30.83 75.69,-72.39 104.89,-124.61 l 646.75,406.61 -1149.09,0 -139.68,-192.21 161.25,0"
         style="fill:#d6e61c;fill-opacity:1;fill-rule:nonzero;stroke:none"
         id="path422"
         inkscape:connector-curvature="0" /><path
         d="m 4805.09,5975.3 -80.32,-110.53 80.32,-12.06 0,122.59"
         style="fill:#d6e61c;fill-opacity:1;fill-rule:nonzero;stroke:none"
         id="path424"
         inkscape:connector-curvature="0" /><path
         d="m 4724.77,5864.77 80.32,110.53 0,2.7 1.97,0 139.68,192.21 -1019.54,0 0,-1.41 457.76,-493.93 339.81,189.9"
         style="fill:#9ad53f;fill-opacity:1;fill-rule:nonzero;stroke:none"
         id="path426"
         inkscape:connector-curvature="0" /><path
         d="m 4805.09,5852.71 -80.32,12.06 -339.81,-189.9 339.81,-366.67 80.32,50.51 0,494"
         style="fill:#5fc462;fill-opacity:1;fill-rule:nonzero;stroke:none"
         id="path428"
         inkscape:connector-curvature="0" /><path
         d="m 7272.56,6394.21 -438.54,-318.72 0,-341.48 136.58,36.09 301.96,624.11"
         style="fill:#78cb4b;fill-opacity:1;fill-rule:nonzero;stroke:none"
         id="path430"
         inkscape:connector-curvature="0" /><path
         d="m 6409.7,5621.91 c -0.55,47.35 -3.5,93.59 -9.04,138.62 l -304.83,-221.55 313.87,82.93"
         style="fill:#78cb4b;fill-opacity:1;fill-rule:nonzero;stroke:none"
         id="path432"
         inkscape:connector-curvature="0" /><path
         d="m 7191.51,5260.72 -194.72,-73.58 316.94,-386.6 703.73,114 -825.95,346.18"
         style="fill:#408bcf;fill-opacity:1;fill-rule:nonzero;stroke:none"
         id="path434"
         inkscape:connector-curvature="0" /><path
         d="m 7191.51,5260.72 -357.49,149.85 0,-24.88 162.77,-198.55 194.72,73.58"
         style="fill:#45aad7;fill-opacity:1;fill-rule:nonzero;stroke:none"
         id="path436"
         inkscape:connector-curvature="0" /><path
         d="m 6996.79,5187.14 -162.77,-61.51 0,-402.79 479.71,77.7 -316.94,386.6"
         style="fill:#397dc7;fill-opacity:1;fill-rule:nonzero;stroke:none"
         id="path438"
         inkscape:connector-curvature="0" /><path
         d="m 6095.83,4846.72 c 2.5,2.14 5.09,4.23 7.55,6.4 93.97,83.13 168.54,192.05 223.8,326.74 55.21,134.69 82.84,276.85 82.84,426.51 0,5.23 -0.26,10.34 -0.32,15.54 l -313.87,-82.93 0,-692.26"
         style="fill:#4bc1a9;fill-opacity:1;fill-rule:nonzero;stroke:none"
         id="path440"
         inkscape:connector-curvature="0" /><path
         d="m 6834.02,5734.01 0,-246.19 136.58,282.28 -136.58,-36.09"
         style="fill:#4bc1a9;fill-opacity:1;fill-rule:nonzero;stroke:none"
         id="path442"
         inkscape:connector-curvature="0" /><path
         d="m 7711.9,5457.38 0,96.85 -877.88,-126.16 0,-17.5 357.49,-149.85 520.39,196.66"
         style="fill:#45aed2;fill-opacity:1;fill-rule:nonzero;stroke:none"
         id="path444"
         inkscape:connector-curvature="0" /><path
         d="m 7711.9,5929.95 -34.97,26.75 -706.33,-186.6 -136.58,-282.28 0,-59.75 877.88,126.16 0,375.72"
         style="fill:#4ec3b5;fill-opacity:1;fill-rule:nonzero;stroke:none"
         id="path446"
         inkscape:connector-curvature="0" /><path
         d="m 8978.05,6658.92 0,-172.62 444.81,172.62 -444.81,0"
         style="fill:#9ed639;fill-opacity:1;fill-rule:nonzero;stroke:none"
         id="path448"
         inkscape:connector-curvature="0" /><path
         d="m 5296.94,6652.12 291.49,-166.28 213.84,90.6 c -8.78,3.5 -17.62,6.9 -26.56,10.15 -132.72,48.2 -293.89,72.33 -483.45,72.33 l -3.39,0 8.07,-6.8"
         style="fill:#eae507;fill-opacity:1;fill-rule:nonzero;stroke:none"
         id="path450"
         inkscape:connector-curvature="0" /><path
         d="m 5288.87,6658.92 -194.19,0 202.26,-6.8 -8.07,6.8"
         style="fill:#ebec06;fill-opacity:1;fill-rule:nonzero;stroke:none"
         id="path452"
         inkscape:connector-curvature="0" /><path
         d="m 9855.94,5726.39 -877.89,-281.55 0,-87.01 877.89,-224.6 0,593.16"
         style="fill:#3a8dc2;fill-opacity:1;fill-rule:nonzero;stroke:none"
         id="path454"
         inkscape:connector-curvature="0" /><path
         d="m 3927.2,6658.92 0,-487.12 403.77,487.12 -403.77,0"
         style="fill:#ebe407;fill-opacity:1;fill-rule:nonzero;stroke:none"
         id="path456"
         inkscape:connector-curvature="0" /><path
         d="m 4805.09,3254.34 0,258.92 -474.77,-258.92 474.77,0"
         style="fill:#af228f;fill-opacity:1;fill-rule:nonzero;stroke:none"
         id="path458"
         inkscape:connector-curvature="0" /><path
         d="m 3927.2,3254.34 390.67,0 -390.67,141.95 0,-141.95"
         style="fill:#af228f;fill-opacity:1;fill-rule:nonzero;stroke:none"
         id="path460"
         inkscape:connector-curvature="0" /><path
         d="m 5640.94,3254.34 827.28,0 -926.21,154.69 98.93,-154.69"
         style="fill:#af228f;fill-opacity:1;fill-rule:nonzero;stroke:none"
         id="path462"
         inkscape:connector-curvature="0" /><path
         d="m 7183.99,3323.28 -349.97,-35.85 0,-33.09 382.11,0 -32.14,68.94"
         style="fill:#af228f;fill-opacity:1;fill-rule:nonzero;stroke:none"
         id="path464"
         inkscape:connector-curvature="0" /><path
         d="m 6733.97,3254.34 -16.09,21.19 -206.9,-21.19 222.99,0"
         style="fill:#af228f;fill-opacity:1;fill-rule:nonzero;stroke:none"
         id="path466"
         inkscape:connector-curvature="0" /><path
         d="m 9855.94,4084.74 0,6.49 -3.66,-2.63 3.66,-3.86"
         style="fill:#66268f;fill-opacity:1;fill-rule:nonzero;stroke:none"
         id="path468"
         inkscape:connector-curvature="0" /><path
         d="m 9855.94,3254.34 0,361.27 -778.74,-361.27 778.74,0"
         style="fill:#601e60;fill-opacity:1;fill-rule:nonzero;stroke:none"
         id="path470"
         inkscape:connector-curvature="0" /><path
         d="m 7216.13,3254.34 495.77,0 0,123.03 -527.91,-54.09 32.14,-68.94"
         style="fill:#8d1953;fill-opacity:1;fill-rule:nonzero;stroke:none"
         id="path472"
         inkscape:connector-curvature="0" /><path
         d="m 3927.2,4847.02 0,-422.14 614.04,588.06 -614.04,-165.92"
         style="fill:#3759b0;fill-opacity:1;fill-rule:nonzero;stroke:none"
         id="path474"
         inkscape:connector-curvature="0" /><path
         d="m 3927.2,3678.77 0,-282.48 390.67,-141.95 7.47,0 0,357.92 -398.14,66.51"
         style="fill:#ca2594;fill-opacity:1;fill-rule:nonzero;stroke:none"
         id="path476"
         inkscape:connector-curvature="0" /><path
         d="m 4387.65,4353.88 -460.45,-46.36 0,-400.86 398.14,179.8 62.31,267.42"
         style="fill:#8a2287;fill-opacity:1;fill-rule:nonzero;stroke:none"
         id="path478"
         inkscape:connector-curvature="0" /><path
         d="m 4325.34,3254.34 4.98,0 474.77,258.92 0,18.86 -479.75,80.14 0,-357.92"
         style="fill:#b21866;fill-opacity:1;fill-rule:nonzero;stroke:none"
         id="path480"
         inkscape:connector-curvature="0" /><path
         d="m 3927.2,5567.9 0,-168.32 214.61,139.4 -214.61,28.92"
         style="fill:#5ec469;fill-opacity:1;fill-rule:nonzero;stroke:none"
         id="path482"
         inkscape:connector-curvature="0" /><path
         d="m 4384.96,5674.87 -457.76,493.93 0,-600.9 214.61,-28.92 243.15,135.89"
         style="fill:#77cb54;fill-opacity:1;fill-rule:nonzero;stroke:none"
         id="path484"
         inkscape:connector-curvature="0" /><path
         d="m 6478.85,3254.34 6.59,0 79.65,222.35 -276.88,364.53 -464.98,-270.6 655.62,-316.28"
         style="fill:#b32280;fill-opacity:1;fill-rule:nonzero;stroke:none"
         id="path486"
         inkscape:connector-curvature="0" /><path
         d="m 9518.06,3848.91 337.88,-120.71 0,356.54 -3.66,3.86 -334.22,-239.69"
         style="fill:#6f41a3;fill-opacity:1;fill-rule:nonzero;stroke:none"
         id="path488"
         inkscape:connector-curvature="0" /><path
         d="m 7711.9,4294.79 0,27.25 -7.52,1.97 7.52,-29.22"
         style="fill:#833fa4;fill-opacity:1;fill-rule:nonzero;stroke:none"
         id="path490"
         inkscape:connector-curvature="0" /><path
         d="m 4325.34,3612.26 479.75,-80.14 0,369 -479.75,185.34 0,-474.2"
         style="fill:#b0248f;fill-opacity:1;fill-rule:nonzero;stroke:none"
         id="path492"
         inkscape:connector-curvature="0" /><path
         d="m 8978.05,3695.43 0,-153.92 877.89,119.11 0,67.58 -337.88,120.71 -540.01,-153.48"
         style="fill:#742593;fill-opacity:1;fill-rule:nonzero;stroke:none"
         id="path494"
         inkscape:connector-curvature="0" /><path
         d="m 9852.28,4088.6 -409.79,432.27 75.57,-671.96 334.22,239.69"
         style="fill:#66258c;fill-opacity:1;fill-rule:nonzero;stroke:none"
         id="path496"
         inkscape:connector-curvature="0" /><path
         d="m 9852.28,4088.6 3.66,2.63 0,429.64 -413.45,0 409.79,-432.27"
         style="fill:#733da1;fill-opacity:1;fill-rule:nonzero;stroke:none"
         id="path498"
         inkscape:connector-curvature="0" /><path
         d="m 8978.05,3990.38 0,-294.95 540.01,153.48 -540.01,141.47"
         style="fill:#7c207c;fill-opacity:1;fill-rule:nonzero;stroke:none"
         id="path500"
         inkscape:connector-curvature="0" /><path
         d="m 5536.03,3418.38 5.98,-9.35 926.21,-154.69 10.63,0 -655.62,316.28 -287.2,-152.24"
         style="fill:#892072;fill-opacity:1;fill-rule:nonzero;stroke:none"
         id="path502"
         inkscape:connector-curvature="0" /><path
         d="m 5354.07,3702.89 181.96,-284.51 287.2,152.24 -469.16,132.27"
         style="fill:#8a2287;fill-opacity:1;fill-rule:nonzero;stroke:none"
         id="path504"
         inkscape:connector-curvature="0" /><path
         d="m 7711.9,4294.79 -7.52,29.22 -870.36,0 0,-203.41 877.88,-570.27 0,744.46"
         style="fill:#662892;fill-opacity:1;fill-rule:nonzero;stroke:none"
         id="path506"
         inkscape:connector-curvature="0" /><path
         d="m 7711.9,3377.37 0,172.96 -877.88,570.27 0,-46.49 349.97,-750.83 527.91,54.09"
         style="fill:#8f287f;fill-opacity:1;fill-rule:nonzero;stroke:none"
         id="path508"
         inkscape:connector-curvature="0" /><path
         d="m 6834.02,4074.11 0,-786.68 349.97,35.85 -349.97,750.83"
         style="fill:#851b55;fill-opacity:1;fill-rule:nonzero;stroke:none"
         id="path510"
         inkscape:connector-curvature="0" /><path
         d="m 6510.98,3254.34 206.9,21.19 -152.79,201.16 -79.65,-222.35 25.54,0"
         style="fill:#851b55;fill-opacity:1;fill-rule:nonzero;stroke:none"
         id="path512"
         inkscape:connector-curvature="0" /></g></g></svg>